<svg xmlns="http://www.w3.org/2000/svg" xmlns:xlink="http://www.w3.org/1999/xlink" viewBox="0 0 48 48" width="48px" height="48px"><path fill="#febf10" d="M20.26,30.27c-0.07,0.5-0.28,0.97-0.46,1.44c-0.76,1.95-1.12,4.02-1.61,6.05 c-0.11,0.47-0.23,0.93-0.36,1.39c-0.14,0.51-0.32,1.04-0.72,1.38c-0.35,0.29-0.82,0.4-1.27,0.38c-1.14-0.05-2.13-0.93-2.57-1.98 c-0.2-0.48-0.3-0.98-0.33-1.49c-0.05-0.62,0-1.26,0.12-1.88c0.12-0.69,0.31-1.36,0.56-2.01c0.8-2.09,2.45-4.87,4.9-5.12 c0.49-0.06,1.03,0.06,1.37,0.42C20.24,29.21,20.33,29.77,20.26,30.27z"/><path fill="#010101" d="M15.943,41.413c-0.041,0-0.083-0.001-0.126-0.003c-1.249-0.055-2.458-0.974-3.009-2.286 c-0.21-0.505-0.333-1.062-0.367-1.655c-0.051-0.619-0.009-1.297,0.127-2.003c0.121-0.693,0.318-1.401,0.585-2.095 c0.586-1.531,2.277-5.128,5.315-5.438c0.694-0.084,1.364,0.129,1.784,0.574c0.42,0.431,0.604,1.101,0.502,1.833 c-0.066,0.479-0.236,0.91-0.401,1.328l-0.087,0.222c-0.562,1.44-0.909,2.989-1.245,4.486c-0.112,0.501-0.225,1.002-0.345,1.501 c-0.111,0.475-0.233,0.942-0.365,1.409c-0.162,0.593-0.382,1.204-0.877,1.625C17.039,41.238,16.516,41.413,15.943,41.413z M18.763,28.915c-0.06,0-0.121,0.004-0.183,0.011c-2.564,0.262-4.087,3.742-4.493,4.802c-0.244,0.635-0.424,1.28-0.535,1.917 c-0.12,0.625-0.157,1.212-0.113,1.753c0.029,0.5,0.125,0.934,0.293,1.339c0.335,0.8,1.125,1.628,2.131,1.672 c0.355,0.021,0.701-0.078,0.93-0.266c0.267-0.228,0.416-0.615,0.556-1.126c0.129-0.457,0.247-0.91,0.356-1.373 c0.119-0.497,0.23-0.993,0.342-1.488c0.345-1.534,0.7-3.12,1.288-4.629l0.089-0.228c0.15-0.38,0.292-0.738,0.342-1.099 c0,0,0,0,0-0.001c0.058-0.411-0.031-0.794-0.233-1.001C19.359,29.017,19.076,28.915,18.763,28.915z"/><path fill="#febf10" d="M35.69,36.86c0.02,0.45,0.01,0.9-0.03,1.35c-0.05,0.64-0.18,1.34-0.66,1.75 c-0.37,0.32-0.87,0.41-1.35,0.46c-0.61,0.05-1.28,0.03-1.75-0.36c-0.43-0.37-0.59-0.96-0.72-1.52c-0.01-0.05-0.02-0.1-0.03-0.15 c-0.29-1.2-0.58-2.39-0.87-3.59c-0.24-1.02-0.48-2.03-0.63-3.07c-0.12-0.88-0.15-1.83,0.25-2.64c0.34-0.69,1.2-1.34,2.02-1.14 c0.68,0.16,1.23,1.24,1.59,1.79c1.02,1.59,1.71,3.39,2.01,5.25C35.62,35.61,35.68,36.23,35.69,36.86z"/><path fill="#010101" d="M33.205,40.939c-0.55,0-1.146-0.098-1.624-0.495c-0.546-0.469-0.737-1.142-0.889-1.792l0.458-0.263 l-0.486,0.118l-0.87-3.59c-0.25-1.062-0.489-2.08-0.639-3.116c-0.116-0.853-0.188-1.954,0.297-2.933 c0.439-0.893,1.531-1.66,2.586-1.404c0.769,0.181,1.312,1.066,1.709,1.712l0.182,0.291c1.055,1.645,1.775,3.525,2.084,5.444 c0.108,0.665,0.166,1.298,0.178,1.934c0.02,0.47,0.009,0.944-0.032,1.41c-0.053,0.682-0.196,1.542-0.834,2.086 c-0.473,0.409-1.086,0.521-1.622,0.577C33.544,40.93,33.377,40.939,33.205,40.939z M31.611,28.414c-0.5,0-1.031,0.428-1.263,0.896 c-0.364,0.737-0.3,1.644-0.203,2.352c0.143,0.99,0.367,1.942,0.604,2.949l0.887,3.661c0,0.002,0.029,0.153,0.03,0.155 c0.118,0.508,0.249,0.987,0.56,1.253c0.342,0.285,0.919,0.279,1.383,0.241c0.391-0.041,0.799-0.111,1.063-0.34 c0.36-0.307,0.45-0.915,0.489-1.41c0.038-0.429,0.048-0.861,0.028-1.29c0-0.004,0-0.009,0-0.013 c-0.01-0.59-0.063-1.178-0.164-1.798c-0.288-1.784-0.958-3.534-1.938-5.06c-0.059-0.089-0.124-0.196-0.194-0.311 c-0.27-0.44-0.722-1.177-1.089-1.263C31.742,28.421,31.677,28.414,31.611,28.414z"/><path fill="#d6e5e5" d="M18.19,37.76c-0.11,0.47-0.23,0.93-0.36,1.39c-0.14,0.51-0.32,1.04-0.72,1.38 c-0.35,0.29-0.82,0.4-1.27,0.38c-1.14-0.05-2.13-0.93-2.57-1.98c-0.2-0.48-0.3-0.98-0.33-1.49c0.45-0.18,0.95-0.26,1.43-0.33 c1-0.12,2.04-0.13,2.98,0.21C17.65,37.43,17.93,37.57,18.19,37.76z"/><path fill="#010101" d="M15.943,41.413c-0.041,0-0.083-0.001-0.126-0.003c-1.249-0.055-2.458-0.974-3.009-2.286 c-0.21-0.505-0.333-1.062-0.367-1.655c-0.013-0.214,0.113-0.413,0.312-0.493c0.489-0.196,1.01-0.283,1.544-0.361 c1.326-0.16,2.344-0.083,3.222,0.234c0.367,0.135,0.683,0.3,0.965,0.506c0.163,0.119,0.239,0.323,0.192,0.519 c-0.111,0.478-0.233,0.945-0.365,1.412c-0.162,0.593-0.382,1.204-0.877,1.625C17.039,41.238,16.516,41.413,15.943,41.413z M13.477,37.788c0.047,0.339,0.131,0.653,0.255,0.951c0.335,0.8,1.125,1.628,2.131,1.672c0.355,0.021,0.701-0.078,0.93-0.266 c0.267-0.228,0.416-0.615,0.556-1.126c0.097-0.343,0.188-0.684,0.273-1.029c-0.136-0.075-0.282-0.141-0.443-0.2 c-0.725-0.262-1.599-0.321-2.748-0.183C14.091,37.656,13.771,37.707,13.477,37.788z"/><path fill="#d6e5e5" d="M35.69,36.86c0.02,0.45,0.01,0.9-0.03,1.35c-0.05,0.64-0.18,1.34-0.66,1.75 c-0.37,0.32-0.87,0.41-1.35,0.46c-0.61,0.05-1.28,0.03-1.75-0.36c-0.43-0.37-0.59-0.96-0.72-1.52c-0.01-0.05-0.02-0.1-0.03-0.15 c0.14-0.12,0.3-0.23,0.45-0.34c1.16-0.8,2.56-1.33,3.96-1.21C35.6,36.84,35.65,36.85,35.69,36.86z"/><path fill="#010101" d="M33.205,40.939c-0.55,0-1.146-0.098-1.624-0.495c-0.546-0.469-0.737-1.142-0.889-1.792 c-0.042-0.181-0.009-0.521,0.132-0.642c0.115-0.099,0.243-0.193,0.369-0.284l0.109-0.08c1.397-0.963,2.912-1.424,4.3-1.306 c0.025-0.007,0.111,0.009,0.206,0.032c0.217,0.053,0.372,0.242,0.382,0.464c0.02,0.472,0.01,0.949-0.032,1.416 c-0.053,0.682-0.196,1.542-0.834,2.086c-0.473,0.409-1.086,0.521-1.622,0.577C33.544,40.93,33.377,40.939,33.205,40.939z M31.706,38.591c0.109,0.446,0.244,0.853,0.521,1.09c0.342,0.285,0.919,0.279,1.383,0.241c0.391-0.041,0.799-0.111,1.063-0.34 c0.36-0.307,0.45-0.915,0.489-1.41c0.024-0.282,0.037-0.565,0.038-0.847c-1.072-0.053-2.237,0.393-3.316,1.137l-0.104,0.075 C31.756,38.555,31.73,38.573,31.706,38.591z M31.248,38.503L31.18,38.54l0.083-0.019L31.248,38.503z M35.69,36.86h0.01H35.69z"/><path fill="#febf10" d="M16.645,35.786c0.167-1.818,0.723-3.626,1.787-5.109c1.564-2.18,4.254-3.531,6.933-3.387 c2.679,0.144,5.245,1.821,6.367,4.258c0.577,1.253,0.778,2.643,0.931,4.015c0.095,0.857,0.174,1.723,0.072,2.579 c-0.102,0.856-0.399,1.71-0.975,2.351c-1.001,1.114-2.619,1.391-4.111,1.517c-2.764,0.234-5.552,0.183-8.305-0.152 c-0.608-0.074-1.222-0.169-1.783-0.427c-0.638-0.294-0.619-0.648-0.724-1.324C16.615,38.679,16.513,37.227,16.645,35.786z"/><path fill="#010101" d="M24.239,42.654c-1.657,0-3.313-0.1-4.955-0.301c-0.6-0.072-1.294-0.175-1.933-0.469 c-0.817-0.377-0.896-0.924-0.979-1.503l-0.029-0.198c-0.255-1.644-0.319-3.098-0.195-4.443l0,0 c0.188-2.053,0.839-3.905,1.879-5.354c1.676-2.334,4.574-3.75,7.366-3.595c2.884,0.155,5.614,1.983,6.795,4.548 c0.621,1.348,0.828,2.858,0.974,4.168c0.096,0.862,0.181,1.781,0.071,2.694c-0.125,1.057-0.506,1.965-1.1,2.626 c-1.117,1.245-2.872,1.549-4.44,1.682C26.545,42.606,25.393,42.654,24.239,42.654z M24.979,27.779 c-2.354,0-4.731,1.225-6.141,3.189c-0.937,1.305-1.523,2.987-1.695,4.863l0,0c-0.116,1.263-0.056,2.636,0.188,4.198l0.031,0.209 c0.073,0.51,0.084,0.588,0.408,0.738c0.507,0.234,1.085,0.318,1.635,0.385c2.715,0.332,5.476,0.382,8.203,0.151 c1.373-0.117,2.896-0.368,3.78-1.354c0.576-0.641,0.78-1.483,0.852-2.077c0.097-0.808,0.021-1.627-0.073-2.464 c-0.143-1.289-0.329-2.649-0.888-3.861c-1.03-2.237-3.417-3.832-5.939-3.967C25.22,27.782,25.1,27.779,24.979,27.779z M16.646,35.786h0.01H16.646z"/><path fill="#373837" d="M8.235,16.082c-0.526,1.155-0.912,2.399-0.897,3.667c0.014,1.269,0.466,2.569,1.404,3.423 s2.394,1.175,3.529,0.608c1.303-0.65,1.862-2.181,2.281-3.576c0.913-3.04,1.736-6.216,1.492-9.418 c-0.126-1.653-0.693-2.2-2.165-1.242c-1.151,0.749-2.2,1.652-3.115,2.676C9.734,13.373,8.875,14.677,8.235,16.082z"/><path fill="#010101" d="M11.02,24.564c-0.927,0-1.884-0.355-2.615-1.022c-0.979-0.893-1.55-2.273-1.566-3.788 c-0.014-1.189,0.295-2.458,0.942-3.879l0,0c0.656-1.443,1.535-2.784,2.61-3.987c0.948-1.062,2.03-1.991,3.215-2.761 c0.531-0.346,1.318-0.77,2.01-0.428c0.716,0.354,0.872,1.339,0.926,2.051c0.257,3.36-0.646,6.717-1.512,9.6 c-0.446,1.487-1.048,3.136-2.535,3.879C12.041,24.455,11.534,24.564,11.02,24.564z M15.064,9.575c-0.17,0-0.471,0.102-0.914,0.39 c-1.11,0.723-2.124,1.594-3.014,2.59c-1.009,1.128-1.832,2.384-2.446,3.735v0c-0.586,1.285-0.864,2.415-0.853,3.454 c0.014,1.238,0.465,2.354,1.24,3.06c0.826,0.753,2.072,0.976,2.97,0.531c1.13-0.565,1.638-1.986,2.024-3.273 c0.84-2.796,1.716-6.046,1.472-9.235c-0.077-1.01-0.304-1.197-0.371-1.23C15.146,9.583,15.109,9.575,15.064,9.575z M8.235,16.083 h0.01H8.235z"/><path fill="#010101" d="M25.598,34.636c-0.009,0-0.018,0-0.026,0c-0.275-0.015-0.487-0.25-0.473-0.526	c0.066-1.255-0.005-2.428-0.238-3.921c-0.042-0.273,0.145-0.529,0.417-0.571c0.271-0.036,0.528,0.144,0.571,0.417	c0.244,1.565,0.318,2.8,0.248,4.128C26.083,34.429,25.862,34.636,25.598,34.636z"/><path fill="#f58420" d="M22.202,34.713c-0.108-0.229-0.095-0.507,0.018-0.733c0.148-0.297,0.467-0.503,0.799-0.508 c0.332-0.005,0.661,0.193,0.804,0.492c0.144,0.299,0.092,0.684-0.131,0.93C23.319,35.307,22.45,35.234,22.202,34.713z"/><path fill="#010101" d="M23.02,35.66c-0.078,0-0.157-0.006-0.237-0.018c-0.467-0.069-0.853-0.337-1.032-0.716 c-0.171-0.361-0.162-0.799,0.023-1.171c0.234-0.468,0.721-0.776,1.239-0.785c0.52-0.008,1.035,0.304,1.263,0.776 c0.231,0.479,0.145,1.09-0.212,1.482C23.814,35.504,23.429,35.66,23.02,35.66z M23.033,33.971c-0.001,0-0.003,0-0.005,0 c-0.143,0.002-0.294,0.1-0.36,0.232c-0.048,0.096-0.054,0.212-0.014,0.295v0c0.036,0.076,0.141,0.135,0.274,0.155 c0.158,0.023,0.322-0.016,0.395-0.096c0.085-0.094,0.107-0.259,0.051-0.376C23.315,34.06,23.171,33.971,23.033,33.971z"/><path fill="#f58420" d="M24.603,35.19c-0.01-0.392,0.254-0.777,0.623-0.908c0.37-0.131,0.817,0.001,1.056,0.312 c0.239,0.311,0.252,0.777,0.03,1.101C25.812,36.424,24.626,36.073,24.603,35.19z"/><path fill="#010101" d="M25.566,36.589c-0.141,0-0.285-0.021-0.429-0.062c-0.612-0.181-1.019-0.7-1.035-1.324 c0,0,0,0,0-0.001c-0.015-0.604,0.388-1.189,0.957-1.391c0.565-0.2,1.25-0.002,1.619,0.479c0.369,0.48,0.388,1.19,0.045,1.689 C26.454,36.371,26.026,36.589,25.566,36.589z M25.103,35.177c0.007,0.278,0.245,0.369,0.318,0.391 c0.072,0.022,0.321,0.074,0.479-0.155c0.1-0.145,0.093-0.375-0.014-0.514c-0.106-0.138-0.33-0.205-0.491-0.146 C25.229,34.812,25.099,35.002,25.103,35.177z"/><path fill="#010101" d="M23.021,33.971c-0.01,0-0.02,0-0.03-0.001c-0.275-0.017-0.485-0.254-0.469-0.529	c0.074-1.226,0.122-2.194,0.056-3.501c-0.015-0.276,0.198-0.511,0.474-0.525c0.312-0.023,0.511,0.199,0.524,0.474	c0.069,1.359,0.021,2.354-0.056,3.613C23.504,33.766,23.283,33.971,23.021,33.971z"/><path fill="#373837" d="M37.706,11.581c1.496,1.641,2.574,3.636,3.299,5.735c0.517,1.497,0.856,3.147,0.36,4.65 c-0.496,1.503-2.078,2.739-3.616,2.364c-1.284-0.313-2.097-1.568-2.612-2.785c-0.73-1.725-1.125-3.57-1.517-5.402 c-0.284-1.327-0.568-2.653-0.851-3.98c-0.164-0.768-1.054-2.953-0.469-3.605C33.36,7.375,37.01,10.817,37.706,11.581z"/><path fill="#010101" d="M38.335,24.901c-0.231,0-0.467-0.027-0.704-0.085c-1.224-0.299-2.217-1.334-2.954-3.076 c-0.752-1.779-1.155-3.667-1.546-5.492l-0.852-3.979c-0.035-0.166-0.106-0.4-0.188-0.67c-0.439-1.456-0.755-2.714-0.163-3.374 c0.239-0.267,0.575-0.41,0.97-0.411c0.002,0,0.004,0,0.006,0c1.892,0,5.136,3.392,5.172,3.431l0,0 c1.455,1.596,2.6,3.584,3.402,5.909c0.439,1.273,0.955,3.173,0.362,4.97C41.362,23.571,39.952,24.901,38.335,24.901z M32.904,8.813 c-0.117-0.003-0.211,0.056-0.232,0.079c-0.264,0.294,0.218,1.892,0.377,2.417c0.091,0.303,0.169,0.565,0.209,0.75l0.852,3.979 c0.38,1.78,0.773,3.62,1.489,5.312c0.606,1.436,1.37,2.274,2.27,2.494c1.294,0.317,2.613-0.794,3.022-2.035 c0.379-1.148,0.265-2.524-0.358-4.33c-0.758-2.196-1.833-4.067-3.195-5.562l0,0C36.53,11.033,34.03,8.813,32.904,8.813z"/><path fill="#febf10" d="M12.693,10.563c1.567-2.378,4.068-4.042,6.767-4.95c2.758-0.928,5.788-1.122,8.597-0.362 s5.375,2.505,6.958,4.946s2.122,5.578,1.266,8.36c0.961,1.261,1.635,2.765,1.788,4.343c0.153,1.579-0.242,3.23-1.211,4.485 c-1.319,1.71-3.5,2.505-5.615,2.944c-3.962,0.822-8.083,0.681-12.066-0.035c-1.76-0.316-3.526-0.754-5.08-1.638 c-1.554-0.884-2.89-2.266-3.398-3.98c-0.507-1.714-0.049-3.761,1.357-4.865C12.055,19.811,9.783,14.978,12.693,10.563z"/><path fill="#010101" d="M25.563,31.391c-2.074,0-4.238-0.201-6.477-0.604c-1.632-0.293-3.53-0.725-5.238-1.695 c-1.834-1.043-3.123-2.561-3.63-4.273c-0.554-1.87-0.046-3.927,1.236-5.147c-0.48-1.233-1.784-5.433,0.821-9.384l-0.001,0 c1.521-2.308,4.016-4.136,7.025-5.148c2.948-0.993,6.104-1.124,8.887-0.37c3.009,0.814,5.649,2.694,7.247,5.157 c1.66,2.563,2.175,5.733,1.396,8.533c0.99,1.366,1.589,2.879,1.736,4.393c0.171,1.772-0.308,3.536-1.313,4.839 c-1.176,1.524-3.108,2.547-5.909,3.128C29.511,31.201,27.579,31.391,25.563,31.391z M24.452,5.286 c-1.604,0-3.249,0.269-4.833,0.801c-2.799,0.941-5.11,2.628-6.508,4.75l-0.001,0c-2.716,4.12-0.623,8.715-0.602,8.761 c0.098,0.211,0.038,0.462-0.145,0.605c-1.18,0.927-1.667,2.707-1.187,4.33c0.427,1.442,1.581,2.786,3.165,3.688 c1.576,0.896,3.373,1.302,4.922,1.58c4.289,0.771,8.284,0.783,11.876,0.038c2.557-0.53,4.297-1.433,5.321-2.76 c0.852-1.104,1.256-2.609,1.108-4.132c-0.136-1.404-0.72-2.817-1.688-4.088c-0.098-0.128-0.128-0.296-0.08-0.45 c0.794-2.579,0.343-5.548-1.208-7.94c-1.464-2.259-3.895-3.985-6.669-4.736C26.819,5.435,25.646,5.286,24.452,5.286z M12.693,10.562h0.01H12.693z"/><g><path fill="#d6e5e5" d="M18.071,13.799c-1.808,1.499-3.048,3.667-3.423,5.986c-0.187,1.157-0.156,2.385,0.348,3.443 c0.522,1.096,1.492,1.903,2.456,2.641c1.569,1.202,3.268,2.352,5.213,2.708c2.089,0.383,4.221-0.189,6.265-0.767 c1.277-0.361,2.599-0.751,3.594-1.63c1.246-1.1,1.788-2.822,1.844-4.482c0.086-2.591-0.925-5.201-2.735-7.058 C28.107,11.023,21.972,10.565,18.071,13.799z"/><path fill="#010101" d="M24.077,29.199c-0.501,0-1.004-0.039-1.503-0.131c-2.04-0.374-3.814-1.568-5.427-2.803 c-1.004-0.77-2.031-1.621-2.603-2.823c-0.493-1.035-0.624-2.292-0.39-3.738c0.393-2.429,1.704-4.722,3.597-6.291 c4.08-3.383,10.468-2.99,14.238,0.877c1.891,1.941,2.967,4.716,2.877,7.423c-0.068,2.036-0.783,3.755-2.013,4.841 c-1.107,0.977-2.595,1.398-3.79,1.736C27.598,28.706,25.852,29.199,24.077,29.199z M24.294,12.147 c-2.136,0-4.255,0.669-5.903,2.036l0,0c-1.71,1.417-2.894,3.488-3.249,5.681c-0.201,1.241-0.098,2.3,0.306,3.148 c0.477,1.002,1.401,1.764,2.309,2.459c1.513,1.159,3.166,2.277,4.998,2.613c2.043,0.374,4.166-0.227,6.039-0.756 c1.154-0.327,2.463-0.697,3.399-1.524c1.378-1.217,1.641-3.106,1.675-4.124c0.081-2.44-0.889-4.942-2.594-6.692 C29.443,13.111,26.856,12.147,24.294,12.147z M18.071,13.798h0.01H18.071z"/></g><path fill="#010101" d="M20.882,18.84c-0.146-0.281-0.146-0.626-0.034-0.922c0.145-0.384,0.496-0.699,0.905-0.74	c0.401-0.039,0.809,0.202,0.989,0.563c0.18,0.361,0.132,0.818-0.099,1.149C22.199,19.526,21.264,19.578,20.882,18.84z"/><path fill="#010101" d="M25.592,18.747c-0.088-0.19-0.122-0.405-0.092-0.612c0.076-0.523,0.608-0.937,1.134-0.881	c0.526,0.056,0.959,0.572,0.923,1.099C27.488,19.364,26.027,19.687,25.592,18.747z"/><path fill="#010101" d="M23.094,20.555c-0.039,0.155-0.044,0.326,0.046,0.462c0.135,0.205,0.431,0.266,0.695,0.304	c0.285,0.041,0.578,0.077,0.861,0.023s0.556-0.216,0.647-0.46c0.075-0.202,0.016-0.427-0.099-0.614	c-0.207-0.336-0.726-0.693-1.183-0.667C23.591,19.63,23.185,20.195,23.094,20.555z"/><path fill="#ed488b" d="M24.143,22.755c0.05,0.613,0.279,1.232,0.737,1.643s1.167,0.567,1.71,0.279	c0.414-0.219,0.68-0.659,0.78-1.116s0.055-0.935-0.027-1.396L24.143,22.755z"/><path fill="#010101" d="M21.522,23.588c-0.237,0-0.447-0.169-0.491-0.411c-0.049-0.272,0.132-0.532,0.403-0.581l6.165-1.113	c0.268-0.049,0.531,0.131,0.581,0.403c0.049,0.272-0.132,0.532-0.403,0.581l-6.165,1.113C21.582,23.585,21.553,23.588,21.522,23.588	z"/><path fill="#010101" d="M25.973,25.324c-0.505,0-1.024-0.191-1.427-0.554c-0.516-0.461-0.836-1.163-0.901-1.974	c-0.022-0.275,0.183-0.517,0.458-0.539c0.27-0.019,0.517,0.183,0.538,0.458c0.045,0.555,0.249,1.021,0.573,1.312	c0.329,0.296,0.808,0.385,1.143,0.209c0.249-0.132,0.446-0.425,0.525-0.783c0.089-0.406,0.03-0.854-0.031-1.201	c-0.049-0.272,0.133-0.531,0.404-0.58c0.274-0.051,0.531,0.132,0.58,0.405c0.078,0.437,0.15,1.012,0.023,1.591	c-0.145,0.65-0.521,1.179-1.034,1.451C26.563,25.257,26.271,25.324,25.973,25.324z"/><g><defs><rect id="t4oyxyzLw_9IF~Nro5oU3a" width="221.5" height="76.75" x="-46.722" y="79.929"/></defs><clipPath id="t4oyxyzLw_9IF~Nro5oU3b"><use overflow="visible" xlink:href="#t4oyxyzLw_9IF~Nro5oU3a"/></clipPath></g><g><path fill="#febf10" d="M16.973,43.34c-0.594-0.831-0.812-1.885-0.793-2.906c0.026-1.422,0.526-2.882,1.579-3.837 c1.054-0.956,2.707-1.294,3.951-0.605c0.658,0.364,1.155,0.974,1.496,1.644c0.34,0.671,0.536,1.404,0.703,2.137 c0.164,0.718,0.303,1.452,0.255,2.187s-0.304,1.48-0.832,1.994c-0.493,0.48-1.18,0.718-1.864,0.79 C19.902,44.909,17.957,44.714,16.973,43.34z"/><path fill="#010101" d="M20.557,45.293c-1.321,0-3.018-0.304-3.989-1.663l0,0c-0.763-1.066-0.903-2.332-0.887-3.207 c0.031-1.691,0.667-3.221,1.743-4.198c1.262-1.143,3.169-1.425,4.529-0.672c0.69,0.383,1.277,1.025,1.699,1.856 c0.368,0.725,0.575,1.511,0.744,2.252c0.158,0.691,0.322,1.499,0.267,2.332c-0.062,0.94-0.411,1.764-0.982,2.32 c-0.667,0.65-1.543,0.864-2.161,0.928C21.24,45.271,20.912,45.293,20.557,45.293z M20.242,36.127c-0.753,0-1.542,0.292-2.146,0.84 c-0.873,0.792-1.389,2.059-1.415,3.476c-0.014,0.724,0.097,1.763,0.699,2.606l0,0c0.94,1.312,2.932,1.314,4.036,1.199 c0.46-0.048,1.105-0.2,1.567-0.65c0.394-0.383,0.636-0.977,0.682-1.67c0.047-0.698-0.102-1.42-0.243-2.043 c-0.154-0.679-0.342-1.393-0.661-2.022c-0.231-0.455-0.643-1.073-1.292-1.434C21.102,36.226,20.678,36.127,20.242,36.127z"/></g><g><path fill="#febf10" d="M24.47,40.545c0.032-1.021,0.279-2.052,0.833-2.91c0.924-1.43,2.717-2.246,4.403-2.002 c0.745,0.107,1.479,0.418,1.991,0.969c0.54,0.58,0.794,1.379,0.856,2.168c0.061,0.79-0.055,1.581-0.171,2.364 c-0.118,0.796-0.251,1.631-0.742,2.269c-0.431,0.56-1.096,0.903-1.782,1.074c-0.686,0.171-1.399,0.187-2.106,0.203 c-0.544,0.012-1.094,0.023-1.623-0.105c-0.724-0.175-1.235-0.534-1.353-1.265C24.628,42.384,24.441,41.49,24.47,40.545z"/><path fill="#010101" d="M27.291,45.187c-0.413,0-0.851-0.022-1.278-0.125c-1.009-0.243-1.59-0.806-1.729-1.672l-0.073-0.442 c-0.131-0.775-0.266-1.576-0.239-2.418l0,0c0.038-1.207,0.354-2.301,0.913-3.166c1.037-1.604,3.007-2.499,4.894-2.226 c0.923,0.133,1.735,0.532,2.286,1.124c0.719,0.772,0.935,1.77,0.988,2.47c0.066,0.856-0.062,1.717-0.175,2.477 c-0.113,0.776-0.256,1.742-0.84,2.501c-0.582,0.757-1.44,1.1-2.058,1.254c-0.743,0.186-1.492,0.202-2.216,0.217 C27.611,45.183,27.453,45.187,27.291,45.187z M29.112,36.09c-1.328,0-2.668,0.701-3.389,1.816c-0.46,0.712-0.721,1.63-0.753,2.654 v0c-0.024,0.743,0.097,1.46,0.226,2.22l0.074,0.45c0.052,0.321,0.208,0.673,0.977,0.859c0.47,0.112,0.989,0.102,1.495,0.091 c0.669-0.014,1.36-0.029,1.995-0.188c0.463-0.116,1.101-0.365,1.507-0.894c0.426-0.553,0.542-1.342,0.644-2.038 c0.11-0.743,0.225-1.51,0.167-2.253c-0.042-0.542-0.201-1.305-0.723-1.866c-0.396-0.424-0.999-0.714-1.697-0.814 C29.462,36.102,29.287,36.09,29.112,36.09z M24.471,40.544h0.01H24.471z"/></g></svg>